<svg width="660" height="656" viewBox="0 0 660 656" fill="none" xmlns="http://www.w3.org/2000/svg">
<circle cx="330" cy="328" r="136" fill="#F4DD0C"/>
<path fill-rule="evenodd" clip-rule="evenodd" d="M350.092 147.613V20.9574C350.092 9.38293 341.117 0 330.046 0C318.975 0 310 9.38293 310 20.9574V147.613H310.133C310.045 148.41 310 149.221 310 150.043C310 161.617 318.975 171 330.046 171C341.117 171 350.092 161.617 350.092 150.043C350.092 149.221 350.047 148.41 349.959 147.613H350.092Z" fill="#F4DD0C"/>
<path fill-rule="evenodd" clip-rule="evenodd" d="M636.613 308H509.957C498.383 308 489 316.975 489 328.046C489 339.117 498.383 348.092 509.957 348.092H636.613V347.959C637.41 348.047 638.221 348.092 639.043 348.092C650.617 348.092 660 339.117 660 328.046C660 316.975 650.617 308 639.043 308C638.221 308 637.41 308.045 636.613 308.133V308Z" fill="#F4DD0C"/>
<path fill-rule="evenodd" clip-rule="evenodd" d="M570.728 540.378L481.169 450.819C472.984 442.635 460.003 442.346 452.175 450.175C444.346 458.003 444.635 470.984 452.819 479.169L542.378 568.728L542.472 568.633C542.974 569.259 543.515 569.865 544.096 570.446C552.281 578.63 565.262 578.919 573.09 571.09C580.919 563.262 580.63 550.281 572.446 542.096C571.865 541.515 571.259 540.974 570.633 540.472L570.728 540.378Z" fill="#F4DD0C"/>
<path fill-rule="evenodd" clip-rule="evenodd" d="M177.378 452.537L87.8191 542.096C79.6347 550.281 79.3463 563.262 87.1748 571.09C95.0033 578.919 107.984 578.63 116.169 570.446L205.728 480.887L205.633 480.793C206.259 480.291 206.865 479.75 207.446 479.169C215.63 470.984 215.919 458.003 208.09 450.175C200.262 442.346 187.281 442.635 179.096 450.819C178.515 451.4 177.974 452.006 177.472 452.631L177.378 452.537Z" fill="#F4DD0C"/>
<path fill-rule="evenodd" clip-rule="evenodd" d="M542.378 87.5372L452.819 177.096C444.635 185.281 444.346 198.262 452.175 206.09C460.003 213.919 472.984 213.63 481.169 205.446L570.728 115.887L570.633 115.793C571.259 115.291 571.865 114.75 572.446 114.169C580.63 105.984 580.919 93.0033 573.09 85.1748C565.262 77.3463 552.281 77.6347 544.096 85.8191C543.515 86.4002 542.974 87.0056 542.472 87.6315L542.378 87.5372Z" fill="#F4DD0C"/>
<path fill-rule="evenodd" clip-rule="evenodd" d="M205.728 175.378L116.169 85.8191C107.984 77.6347 95.0033 77.3463 87.1748 85.1748C79.3463 93.0033 79.6347 105.984 87.8191 114.169L177.378 203.728L177.472 203.633C177.974 204.259 178.515 204.865 179.096 205.446C187.281 213.63 200.262 213.919 208.09 206.09C215.919 198.262 215.63 185.281 207.446 177.096C206.865 176.515 206.259 175.974 205.633 175.472L205.728 175.378Z" fill="#F4DD0C"/>
<path fill-rule="evenodd" clip-rule="evenodd" d="M147.613 298H20.9574C9.38293 298 0 306.975 0 318.046C0 329.117 9.38293 338.092 20.9574 338.092H147.613V337.959C148.41 338.047 149.221 338.092 150.043 338.092C161.617 338.092 171 329.117 171 318.046C171 306.975 161.617 298 150.043 298C149.221 298 148.41 298.045 147.613 298.133V298Z" fill="#F4DD0C"/>
<path fill-rule="evenodd" clip-rule="evenodd" d="M350.092 632.613V505.957C350.092 494.383 341.117 485 330.046 485C318.975 485 310 494.383 310 505.957V632.613H310.133C310.045 633.41 310 634.221 310 635.043C310 646.617 318.975 656 330.046 656C341.117 656 350.092 646.617 350.092 635.043C350.092 634.221 350.047 633.41 349.959 632.613H350.092Z" fill="#F4DD0C"/>
</svg>
